<svg width="843" height="603" viewBox="0 0 843 603" fill="none" xmlns="http://www.w3.org/2000/svg">
<path d="M41.1084 17C43.8066 17 45.4062 15.6729 45.4062 13.4404C45.4062 11.7529 44.2988 10.54 42.5762 10.3203V10.25C43.7979 10.0303 44.7646 8.7998 44.7646 7.48145C44.7646 5.58301 43.2969 4.31738 41.126 4.31738H36.3184V17H41.1084ZM37.9004 5.71484H40.7656C42.3037 5.71484 43.165 6.40918 43.165 7.66602C43.165 9.03711 42.1455 9.78418 40.2734 9.78418H37.9004V5.71484ZM37.9004 15.6025V11.1465H40.7217C42.7432 11.1465 43.7803 11.8936 43.7803 13.3613C43.7803 14.8291 42.7783 15.6025 40.8711 15.6025H37.9004ZM54.9512 17H56.4629V7.85938H54.9512V17ZM47.1289 17H50.3721C52.4639 17 53.8086 15.7959 53.8086 13.8887C53.8086 11.9814 52.4639 10.7773 50.3721 10.7773H48.6582V7.85938H47.1289V17ZM50.3457 12.0342C51.5234 12.0342 52.2969 12.7637 52.2969 13.8887C52.2969 15.0049 51.5322 15.7432 50.3457 15.7432H48.6582V12.0342H50.3457ZM62.5273 17.1582C65.1729 17.1582 66.7988 15.3916 66.7988 12.5176C66.7988 9.79297 65.2256 8.05273 62.7559 8.05273C61.3496 8.05273 60.207 8.61523 59.6094 9.69629H59.5391C59.9082 6.96289 60.6641 5.84668 63.2041 5.75L63.8809 5.72363C64.9355 5.67969 65.9023 5.45117 66.1924 5.1875V3.85156C65.6738 4.12402 64.6895 4.2998 63.8105 4.34375L63.1338 4.37012C59.583 4.50195 58.2471 6.60254 58.2471 11.6475C58.2471 15.2773 59.7236 17.1582 62.5273 17.1582ZM62.5273 15.8047C60.8047 15.8047 59.8115 14.6182 59.8115 12.5176C59.8115 10.5225 60.8047 9.38867 62.5273 9.38867C64.2412 9.38867 65.2344 10.5225 65.2344 12.5176C65.2344 14.6182 64.2412 15.8047 62.5273 15.8047ZM70.0156 17L74.5684 10.2061H74.6387V17H76.168V7.85938H74.6562L70.1035 14.6533H70.0332V7.85938H68.5039V17H70.0156ZM82.7598 7.70117C81.4326 7.70117 80.3691 8.37793 79.8066 9.40625H79.7715V7.85938H78.3213V20.0498H79.8506V15.5146H79.8857C80.4307 16.5166 81.4854 17.1582 82.7949 17.1582C85.0977 17.1582 86.6709 15.2949 86.6709 12.4297C86.6709 9.56445 85.0889 7.70117 82.7598 7.70117ZM82.4609 15.8135C80.8965 15.8135 79.8418 14.4688 79.8418 12.4297C79.8418 10.3994 80.8965 9.0459 82.4609 9.0459C84.0869 9.0459 85.1064 10.3643 85.1064 12.4297C85.1064 14.5039 84.0869 15.8135 82.4609 15.8135ZM91.0654 17.1582C92.2959 17.1582 93.4561 16.4727 94.001 15.4268H94.0361V17H95.4863V10.6807C95.4863 8.86133 94.1328 7.70117 91.9883 7.70117C89.8262 7.70117 88.4727 8.91406 88.3672 10.4961H89.8438C90.0371 9.59961 90.7754 9.0459 91.9531 9.0459C93.2188 9.0459 93.957 9.71387 93.957 10.8301V11.5947L91.3379 11.7441C89.2285 11.8672 88.0244 12.8516 88.0244 14.416C88.0244 16.0596 89.2461 17.1582 91.0654 17.1582ZM91.4082 15.8574C90.3096 15.8574 89.5801 15.2861 89.5801 14.416C89.5801 13.5547 90.2832 13.0098 91.5137 12.9307L93.957 12.7812V13.5283C93.957 14.8467 92.8496 15.8574 91.4082 15.8574ZM103.669 14.3809C103.414 15.2422 102.562 15.8311 101.401 15.8311C99.7578 15.8311 98.7295 14.6797 98.7295 12.9307V12.8428H105.286V12.2627C105.286 9.49414 103.766 7.70117 101.296 7.70117C98.7734 7.70117 97.1562 9.62598 97.1562 12.4648C97.1562 15.3389 98.7471 17.1582 101.366 17.1582C103.361 17.1582 104.908 15.9805 105.172 14.3809H103.669ZM101.27 9.02832C102.711 9.02832 103.669 10.1182 103.704 11.6475H98.7383C98.835 10.127 99.8369 9.02832 101.27 9.02832ZM113.337 7.85938H105.919V9.11621H108.863V17H110.393V9.11621H113.337V7.85938ZM120.649 14.3809C120.395 15.2422 119.542 15.8311 118.382 15.8311C116.738 15.8311 115.71 14.6797 115.71 12.9307V12.8428H122.267V12.2627C122.267 9.49414 120.746 7.70117 118.276 7.70117C115.754 7.70117 114.137 9.62598 114.137 12.4648C114.137 15.3389 115.728 17.1582 118.347 17.1582C120.342 17.1582 121.889 15.9805 122.152 14.3809H120.649ZM118.25 9.02832C119.691 9.02832 120.649 10.1182 120.685 11.6475H115.719C115.815 10.127 116.817 9.02832 118.25 9.02832ZM133.587 17H135.125V7.85938H127.672V17H129.201V9.11621H133.587V17ZM141.717 7.70117C140.39 7.70117 139.326 8.37793 138.764 9.40625H138.729V7.85938H137.278V20.0498H138.808V15.5146H138.843C139.388 16.5166 140.442 17.1582 141.752 17.1582C144.055 17.1582 145.628 15.2949 145.628 12.4297C145.628 9.56445 144.046 7.70117 141.717 7.70117ZM141.418 15.8135C139.854 15.8135 138.799 14.4688 138.799 12.4297C138.799 10.3994 139.854 9.0459 141.418 9.0459C143.044 9.0459 144.063 10.3643 144.063 12.4297C144.063 14.5039 143.044 15.8135 141.418 15.8135ZM151.139 17.1582C153.661 17.1582 155.366 15.3389 155.366 12.4297C155.366 9.51172 153.661 7.70117 151.139 7.70117C148.607 7.70117 146.902 9.51172 146.902 12.4297C146.902 15.3389 148.607 17.1582 151.139 17.1582ZM151.139 15.8135C149.521 15.8135 148.458 14.583 148.458 12.4297C148.458 10.2764 149.521 9.0459 151.139 9.0459C152.756 9.0459 153.811 10.2764 153.811 12.4297C153.811 14.583 152.756 15.8135 151.139 15.8135ZM162.96 9.11621V7.85938H157.08V17H158.609V9.11621H162.96ZM169.068 7.70117C167.741 7.70117 166.678 8.37793 166.115 9.40625H166.08V7.85938H164.63V20.0498H166.159V15.5146H166.194C166.739 16.5166 167.794 17.1582 169.104 17.1582C171.406 17.1582 172.979 15.2949 172.979 12.4297C172.979 9.56445 171.397 7.70117 169.068 7.70117ZM168.77 15.8135C167.205 15.8135 166.15 14.4688 166.15 12.4297C166.15 10.3994 167.205 9.0459 168.77 9.0459C170.396 9.0459 171.415 10.3643 171.415 12.4297C171.415 14.5039 170.396 15.8135 168.77 15.8135ZM177.374 17.1582C178.604 17.1582 179.765 16.4727 180.31 15.4268H180.345V17H181.795V10.6807C181.795 8.86133 180.441 7.70117 178.297 7.70117C176.135 7.70117 174.781 8.91406 174.676 10.4961H176.152C176.346 9.59961 177.084 9.0459 178.262 9.0459C179.527 9.0459 180.266 9.71387 180.266 10.8301V11.5947L177.646 11.7441C175.537 11.8672 174.333 12.8516 174.333 14.416C174.333 16.0596 175.555 17.1582 177.374 17.1582ZM177.717 15.8574C176.618 15.8574 175.889 15.2861 175.889 14.416C175.889 13.5547 176.592 13.0098 177.822 12.9307L180.266 12.7812V13.5283C180.266 14.8467 179.158 15.8574 177.717 15.8574ZM185.416 17V10.5137H185.478L188.431 16.7363H189.6L192.553 10.5137H192.614V17H194.135V7.85938H192.351L189.081 14.9785H189.011L185.759 7.85938H183.904V17H185.416ZM197.791 17V10.5137H197.853L200.806 16.7363H201.975L204.928 10.5137H204.989V17H206.51V7.85938H204.726L201.456 14.9785H201.386L198.134 7.85938H196.279V17H197.791ZM209.428 20.4189C211.08 20.4189 211.836 19.7773 212.618 17.6416L216.213 7.85938H214.604L212.073 15.4707H212.047L209.516 7.85938H207.881L211.256 17.0088L211.045 17.6504C210.693 18.7139 210.219 19.127 209.366 19.127C209.173 19.127 208.936 19.1182 208.769 19.083V20.3662C208.936 20.4014 209.243 20.4189 209.428 20.4189Z" fill="white"/>
<path d="M209.342 83.2129C202.152 83.2129 197.652 88.2754 197.652 96.3262C197.652 104.377 202.152 109.422 209.342 109.422C216.531 109.422 221.031 104.377 221.031 96.3262C221.031 88.2754 216.531 83.2129 209.342 83.2129ZM209.342 86.1309C214.527 86.1309 217.779 90.0684 217.779 96.3262C217.779 102.566 214.527 106.504 209.342 106.504C204.156 106.504 200.904 102.566 200.904 96.3262C200.904 90.0684 204.156 86.1309 209.342 86.1309ZM236.658 109H239.734V90.7188H224.828V109H227.887V93.2324H236.658V109ZM248.945 100.932L249.508 93.2324H255.66V109H258.719V90.7188H246.748L246.045 100.861C245.816 104.219 245.131 106.346 243.32 106.346C242.881 106.346 242.547 106.258 242.389 106.205V108.965C242.6 109.053 242.951 109.158 243.479 109.158C247.328 109.158 248.576 105.977 248.945 100.932ZM268.404 109.316C270.865 109.316 273.186 107.945 274.275 105.854H274.346V109H277.246V96.3613C277.246 92.7227 274.539 90.4023 270.25 90.4023C265.926 90.4023 263.219 92.8281 263.008 95.9922H265.961C266.348 94.1992 267.824 93.0918 270.18 93.0918C272.711 93.0918 274.188 94.4277 274.188 96.6602V98.1895L268.949 98.4883C264.73 98.7344 262.322 100.703 262.322 103.832C262.322 107.119 264.766 109.316 268.404 109.316ZM269.09 106.715C266.893 106.715 265.434 105.572 265.434 103.832C265.434 102.109 266.84 101.02 269.301 100.861L274.188 100.562V102.057C274.188 104.693 271.973 106.715 269.09 106.715ZM295.404 109V90.7188H292.346V98.418C291.484 99.2793 289.885 99.8594 287.846 99.8594C285.314 99.8594 284.066 98.3301 284.066 95.9395V90.7188H281.008V95.9746C281.008 99.877 283.311 102.531 287.74 102.531C289.674 102.531 291.045 102.109 292.082 101.424H292.346V109H295.404ZM302.734 109L311.84 95.4121H311.98V109H315.039V90.7188H312.016L302.91 104.307H302.77V90.7188H299.711V109H302.734ZM327.203 109C331.088 109 333.479 106.979 333.479 103.744C333.479 101.512 331.967 99.877 329.664 99.5605V99.4199C331.352 99.0684 332.67 97.3281 332.67 95.4473C332.67 92.5117 330.578 90.7188 327.15 90.7188H319.328V109H327.203ZM322.387 93.1973H326.693C328.609 93.1973 329.646 94.1113 329.646 95.7637C329.646 97.5391 328.539 98.4004 326.236 98.4004H322.387V93.1973ZM322.387 100.861H326.482C329.154 100.861 330.438 101.775 330.438 103.674C330.438 105.52 329.242 106.521 327.027 106.521H322.387V100.861ZM342.338 109.316C344.799 109.316 347.119 107.945 348.209 105.854H348.279V109H351.18V96.3613C351.18 92.7227 348.473 90.4023 344.184 90.4023C339.859 90.4023 337.152 92.8281 336.941 95.9922H339.895C340.281 94.1992 341.758 93.0918 344.113 93.0918C346.645 93.0918 348.121 94.4277 348.121 96.6602V98.1895L342.883 98.4883C338.664 98.7344 336.256 100.703 336.256 103.832C336.256 107.119 338.699 109.316 342.338 109.316ZM343.023 106.715C340.826 106.715 339.367 105.572 339.367 103.832C339.367 102.109 340.773 101.02 343.234 100.861L348.121 100.562V102.057C348.121 104.693 345.906 106.715 343.023 106.715ZM367.545 103.762C367.035 105.484 365.33 106.662 363.01 106.662C359.723 106.662 357.666 104.359 357.666 100.861V100.686H370.779V99.5254C370.779 93.9883 367.738 90.4023 362.799 90.4023C357.754 90.4023 354.52 94.252 354.52 99.9297C354.52 105.678 357.701 109.316 362.939 109.316C366.93 109.316 370.023 106.961 370.551 103.762H367.545ZM362.746 93.0566C365.629 93.0566 367.545 95.2363 367.615 98.2949H357.684C357.877 95.2539 359.881 93.0566 362.746 93.0566ZM386.881 90.7188H372.045V93.2324H377.934V109H380.992V93.2324H386.881V90.7188ZM401.506 103.762C400.996 105.484 399.291 106.662 396.971 106.662C393.684 106.662 391.627 104.359 391.627 100.861V100.686H404.74V99.5254C404.74 93.9883 401.699 90.4023 396.76 90.4023C391.715 90.4023 388.48 94.252 388.48 99.9297C388.48 105.678 391.662 109.316 396.9 109.316C400.891 109.316 403.984 106.961 404.512 103.762H401.506ZM396.707 93.0566C399.59 93.0566 401.506 95.2363 401.576 98.2949H391.645C391.838 95.2539 393.842 93.0566 396.707 93.0566Z" fill="#036CCA"/>
<path d="M242.9 187.162V181.317H241.318V194H242.9V187.839H242.971L248.824 194H250.995L244.641 187.382L250.406 181.317H248.42L242.971 187.162H242.9ZM254.687 194.158C255.917 194.158 257.077 193.473 257.622 192.427H257.657V194H259.107V187.681C259.107 185.861 257.754 184.701 255.609 184.701C253.447 184.701 252.094 185.914 251.988 187.496H253.465C253.658 186.6 254.396 186.046 255.574 186.046C256.84 186.046 257.578 186.714 257.578 187.83V188.595L254.959 188.744C252.85 188.867 251.646 189.852 251.646 191.416C251.646 193.06 252.867 194.158 254.687 194.158ZM255.029 192.857C253.931 192.857 253.201 192.286 253.201 191.416C253.201 190.555 253.904 190.01 255.135 189.931L257.578 189.781V190.528C257.578 191.847 256.471 192.857 255.029 192.857ZM262.816 189.605L266.745 194H268.714L264.337 189.184L268.591 184.859H266.701L262.816 188.902H262.746V184.859H261.217V194H262.746V189.605H262.816ZM272.405 194.158C273.636 194.158 274.796 193.473 275.341 192.427H275.376V194H276.826V187.681C276.826 185.861 275.473 184.701 273.328 184.701C271.166 184.701 269.812 185.914 269.707 187.496H271.184C271.377 186.6 272.115 186.046 273.293 186.046C274.559 186.046 275.297 186.714 275.297 187.83V188.595L272.678 188.744C270.568 188.867 269.364 189.852 269.364 191.416C269.364 193.06 270.586 194.158 272.405 194.158ZM272.748 192.857C271.649 192.857 270.92 192.286 270.92 191.416C270.92 190.555 271.623 190.01 272.854 189.931L275.297 189.781V190.528C275.297 191.847 274.189 192.857 272.748 192.857ZM283.954 194H285.483V184.859H282.214C280.113 184.859 278.76 186.011 278.76 187.892C278.76 189.148 279.542 190.098 280.834 190.467L278.285 194H280.052L282.372 190.748H283.954V194ZM282.223 189.491C281.045 189.491 280.28 188.814 280.28 187.865C280.28 186.767 281.036 186.116 282.223 186.116H283.954V189.491H282.223ZM293.306 189.57V188.146H287.54V189.57H293.306ZM301.69 184.859H294.272V186.116H297.217V194H298.746V186.116H301.69V184.859ZM306.727 194.158C309.249 194.158 310.954 192.339 310.954 189.43C310.954 186.512 309.249 184.701 306.727 184.701C304.195 184.701 302.49 186.512 302.49 189.43C302.49 192.339 304.195 194.158 306.727 194.158ZM306.727 192.813C305.109 192.813 304.046 191.583 304.046 189.43C304.046 187.276 305.109 186.046 306.727 186.046C308.344 186.046 309.398 187.276 309.398 189.43C309.398 191.583 308.344 192.813 306.727 192.813ZM320.279 194.158C322.925 194.158 324.551 192.392 324.551 189.518C324.551 186.793 322.978 185.053 320.508 185.053C319.102 185.053 317.959 185.615 317.361 186.696H317.291C317.66 183.963 318.416 182.847 320.956 182.75L321.633 182.724C322.688 182.68 323.654 182.451 323.944 182.188V180.852C323.426 181.124 322.441 181.3 321.562 181.344L320.886 181.37C317.335 181.502 315.999 183.603 315.999 188.647C315.999 192.277 317.476 194.158 320.279 194.158ZM320.279 192.805C318.557 192.805 317.563 191.618 317.563 189.518C317.563 187.522 318.557 186.389 320.279 186.389C321.993 186.389 322.986 187.522 322.986 189.518C322.986 191.618 321.993 192.805 320.279 192.805ZM326.766 197.419C328.418 197.419 329.174 196.777 329.956 194.642L333.551 184.859H331.942L329.411 192.471H329.385L326.854 184.859H325.219L328.594 194.009L328.383 194.65C328.031 195.714 327.557 196.127 326.704 196.127C326.511 196.127 326.273 196.118 326.106 196.083V197.366C326.273 197.401 326.581 197.419 326.766 197.419ZM335.089 196.417V194H342.182V196.417H343.605V192.743H342.155V184.859H335.862L335.511 189.931C335.423 191.161 335.098 192.304 334.43 192.743H333.665V196.417H335.089ZM340.635 192.743H336.179V192.673C336.609 192.093 336.847 191.1 336.926 189.966L337.207 186.116H340.635V192.743ZM351.05 191.381C350.795 192.242 349.942 192.831 348.782 192.831C347.139 192.831 346.11 191.68 346.11 189.931V189.843H352.667V189.263C352.667 186.494 351.146 184.701 348.677 184.701C346.154 184.701 344.537 186.626 344.537 189.465C344.537 192.339 346.128 194.158 348.747 194.158C350.742 194.158 352.289 192.98 352.553 191.381H351.05ZM348.65 186.028C350.092 186.028 351.05 187.118 351.085 188.647H346.119C346.216 187.127 347.218 186.028 348.65 186.028ZM360.718 184.859H353.3V186.116H356.244V194H357.773V186.116H360.718V184.859ZM371.739 194H373.277V184.859H365.824V194H367.354V186.116H371.739V194ZM379.219 194.158C381.741 194.158 383.446 192.339 383.446 189.43C383.446 186.512 381.741 184.701 379.219 184.701C376.688 184.701 374.982 186.512 374.982 189.43C374.982 192.339 376.688 194.158 379.219 194.158ZM379.219 192.813C377.602 192.813 376.538 191.583 376.538 189.43C376.538 187.276 377.602 186.046 379.219 186.046C380.836 186.046 381.891 187.276 381.891 189.43C381.891 191.583 380.836 192.813 379.219 192.813ZM385.503 196.417V194H392.596V196.417H394.02V192.743H392.569V184.859H386.276L385.925 189.931C385.837 191.161 385.512 192.304 384.844 192.743H384.079V196.417H385.503ZM391.049 192.743H386.593V192.673C387.023 192.093 387.261 191.1 387.34 189.966L387.621 186.116H391.049V192.743ZM401.271 186.116V184.859H395.391V194H396.92V186.116H401.271ZM406.377 194.158C408.899 194.158 410.604 192.339 410.604 189.43C410.604 186.512 408.899 184.701 406.377 184.701C403.846 184.701 402.141 186.512 402.141 189.43C402.141 192.339 403.846 194.158 406.377 194.158ZM406.377 192.813C404.76 192.813 403.696 191.583 403.696 189.43C403.696 187.276 404.76 186.046 406.377 186.046C407.994 186.046 409.049 187.276 409.049 189.43C409.049 191.583 407.994 192.813 406.377 192.813ZM418.655 184.859H411.237V186.116H414.182V194H415.711V186.116H418.655V184.859ZM423.691 194.158C426.214 194.158 427.919 192.339 427.919 189.43C427.919 186.512 426.214 184.701 423.691 184.701C421.16 184.701 419.455 186.512 419.455 189.43C419.455 192.339 421.16 194.158 423.691 194.158ZM423.691 192.813C422.074 192.813 421.011 191.583 421.011 189.43C421.011 187.276 422.074 186.046 423.691 186.046C425.309 186.046 426.363 187.276 426.363 189.43C426.363 191.583 425.309 192.813 423.691 192.813ZM433.57 194C435.513 194 436.708 192.989 436.708 191.372C436.708 190.256 435.952 189.438 434.801 189.28V189.21C435.645 189.034 436.304 188.164 436.304 187.224C436.304 185.756 435.258 184.859 433.544 184.859H429.633V194H433.57ZM431.162 186.099H433.315C434.273 186.099 434.792 186.556 434.792 187.382C434.792 188.27 434.238 188.7 433.087 188.7H431.162V186.099ZM431.162 189.931H433.21C434.546 189.931 435.188 190.388 435.188 191.337C435.188 192.26 434.59 192.761 433.482 192.761H431.162V189.931ZM440.057 189.605L443.985 194H445.954L441.577 189.184L445.831 184.859H443.941L440.057 188.902H439.986V184.859H438.457V194H439.986V189.605H440.057ZM449.646 194.158C450.876 194.158 452.036 193.473 452.581 192.427H452.616V194H454.066V187.681C454.066 185.861 452.713 184.701 450.568 184.701C448.406 184.701 447.053 185.914 446.947 187.496H448.424C448.617 186.6 449.355 186.046 450.533 186.046C451.799 186.046 452.537 186.714 452.537 187.83V188.595L449.918 188.744C447.809 188.867 446.604 189.852 446.604 191.416C446.604 193.06 447.826 194.158 449.646 194.158ZM449.988 192.857C448.89 192.857 448.16 192.286 448.16 191.416C448.16 190.555 448.863 190.01 450.094 189.931L452.537 189.781V190.528C452.537 191.847 451.43 192.857 449.988 192.857Z" fill="white"/>
<path d="M317.539 314.211C320.343 314.211 322.224 312.813 322.804 310.309H321.204C320.747 311.855 319.411 312.752 317.548 312.752C315.043 312.752 313.452 310.766 313.452 307.654C313.452 304.569 315.061 302.565 317.539 302.565C319.35 302.565 320.8 303.655 321.204 305.316H322.804C322.399 302.785 320.299 301.106 317.539 301.106C314.067 301.106 311.826 303.673 311.826 307.654C311.826 311.671 314.041 314.211 317.539 314.211ZM327.286 314.158C328.517 314.158 329.677 313.473 330.222 312.427H330.257V314H331.707V307.681C331.707 305.861 330.354 304.701 328.209 304.701C326.047 304.701 324.693 305.914 324.588 307.496H326.064C326.258 306.6 326.996 306.046 328.174 306.046C329.439 306.046 330.178 306.714 330.178 307.83V308.595L327.559 308.744C325.449 308.867 324.245 309.852 324.245 311.416C324.245 313.06 325.467 314.158 327.286 314.158ZM327.629 312.857C326.53 312.857 325.801 312.286 325.801 311.416C325.801 310.555 326.504 310.01 327.734 309.931L330.178 309.781V310.528C330.178 311.847 329.07 312.857 327.629 312.857ZM334.335 316.417V314H341.428V316.417H342.852V312.743H341.401V304.859H335.108L334.757 309.931C334.669 311.161 334.344 312.304 333.676 312.743H332.911V316.417H334.335ZM339.881 312.743H335.425V312.673C335.855 312.093 336.093 311.1 336.172 309.966L336.453 306.116H339.881V312.743ZM345.734 314L350.287 307.206H350.357V314H351.887V304.859H350.375L345.822 311.653H345.752V304.859H344.223V314H345.734ZM355.543 314V307.514H355.604L358.558 313.736H359.727L362.68 307.514H362.741V314H364.262V304.859H362.478L359.208 311.979H359.138L355.886 304.859H354.031V314H355.543ZM374.009 307.856C373.815 306.213 372.453 304.701 370.168 304.701C367.646 304.701 365.967 306.547 365.967 309.43C365.967 312.374 367.654 314.158 370.186 314.158C372.26 314.158 373.789 312.875 374.026 311.056H372.523C372.26 312.154 371.442 312.813 370.194 312.813C368.612 312.813 367.522 311.557 367.522 309.43C367.522 307.355 368.595 306.046 370.177 306.046C371.521 306.046 372.295 306.863 372.515 307.856H374.009ZM380.618 314H382.147V304.859H378.878C376.777 304.859 375.424 306.011 375.424 307.892C375.424 309.148 376.206 310.098 377.498 310.467L374.949 314H376.716L379.036 310.748H380.618V314ZM378.887 309.491C377.709 309.491 376.944 308.814 376.944 307.865C376.944 306.767 377.7 306.116 378.887 306.116H380.618V309.491H378.887ZM385.514 314.088C386.076 314.088 386.516 313.648 386.516 313.086C386.516 312.523 386.076 312.084 385.514 312.084C384.951 312.084 384.512 312.523 384.512 313.086C384.512 313.648 384.951 314.088 385.514 314.088ZM401.519 314V301.317H393.863L393.406 309.192C393.266 311.645 392.729 312.629 391.525 312.629C391.385 312.629 391.147 312.603 391.051 312.576V313.991C391.209 314.044 391.438 314.079 391.666 314.079C393.714 314.079 394.689 312.629 394.9 309.254L395.305 302.741H399.937V314H401.519ZM409.991 311.381C409.736 312.242 408.884 312.831 407.724 312.831C406.08 312.831 405.052 311.68 405.052 309.931V309.843H411.608V309.263C411.608 306.494 410.088 304.701 407.618 304.701C405.096 304.701 403.479 306.626 403.479 309.465C403.479 312.339 405.069 314.158 407.688 314.158C409.684 314.158 411.23 312.98 411.494 311.381H409.991ZM407.592 306.028C409.033 306.028 409.991 307.118 410.026 308.647H405.061C405.157 307.127 406.159 306.028 407.592 306.028ZM419.659 304.859H412.241V306.116H415.186V314H416.715V306.116H419.659V304.859ZM422.586 314L427.139 307.206H427.209V314H428.738V304.859H427.227L422.674 311.653H422.604V304.859H421.074V314H422.586ZM432.395 314V307.514H432.456L435.409 313.736H436.578L439.531 307.514H439.593V314H441.113V304.859H439.329L436.06 311.979H435.989L432.737 304.859H430.883V314H432.395ZM444.471 314.088C445.033 314.088 445.473 313.648 445.473 313.086C445.473 312.523 445.033 312.084 444.471 312.084C443.908 312.084 443.469 312.523 443.469 313.086C443.469 313.648 443.908 314.088 444.471 314.088ZM461.012 314V301.317H459.43V306.802H452.469V301.317H450.887V314H452.469V308.226H459.43V314H461.012ZM469.476 311.381C469.221 312.242 468.368 312.831 467.208 312.831C465.564 312.831 464.536 311.68 464.536 309.931V309.843H471.093V309.263C471.093 306.494 469.572 304.701 467.103 304.701C464.58 304.701 462.963 306.626 462.963 309.465C462.963 312.339 464.554 314.158 467.173 314.158C469.168 314.158 470.715 312.98 470.979 311.381H469.476ZM467.076 306.028C468.518 306.028 469.476 307.118 469.511 308.647H464.545C464.642 307.127 465.644 306.028 467.076 306.028ZM476.744 314C478.687 314 479.882 312.989 479.882 311.372C479.882 310.256 479.126 309.438 477.975 309.28V309.21C478.818 309.034 479.478 308.164 479.478 307.224C479.478 305.756 478.432 304.859 476.718 304.859H472.807V314H476.744ZM474.336 306.099H476.489C477.447 306.099 477.966 306.556 477.966 307.382C477.966 308.27 477.412 308.7 476.261 308.7H474.336V306.099ZM474.336 309.931H476.384C477.72 309.931 478.361 310.388 478.361 311.337C478.361 312.26 477.764 312.761 476.656 312.761H474.336V309.931ZM487.704 311.381C487.449 312.242 486.597 312.831 485.437 312.831C483.793 312.831 482.765 311.68 482.765 309.931V309.843H489.321V309.263C489.321 306.494 487.801 304.701 485.331 304.701C482.809 304.701 481.191 306.626 481.191 309.465C481.191 312.339 482.782 314.158 485.401 314.158C487.396 314.158 488.943 312.98 489.207 311.381H487.704ZM485.305 306.028C486.746 306.028 487.704 307.118 487.739 308.647H482.773C482.87 307.127 483.872 306.028 485.305 306.028ZM498.638 307.856C498.444 306.213 497.082 304.701 494.797 304.701C492.274 304.701 490.596 306.547 490.596 309.43C490.596 312.374 492.283 314.158 494.814 314.158C496.889 314.158 498.418 312.875 498.655 311.056H497.152C496.889 312.154 496.071 312.813 494.823 312.813C493.241 312.813 492.151 311.557 492.151 309.43C492.151 307.355 493.224 306.046 494.806 306.046C496.15 306.046 496.924 306.863 497.144 307.856H498.638ZM504.025 314.158C506.548 314.158 508.253 312.339 508.253 309.43C508.253 306.512 506.548 304.701 504.025 304.701C501.494 304.701 499.789 306.512 499.789 309.43C499.789 312.339 501.494 314.158 504.025 314.158ZM504.025 312.813C502.408 312.813 501.345 311.583 501.345 309.43C501.345 307.276 502.408 306.046 504.025 306.046C505.643 306.046 506.697 307.276 506.697 309.43C506.697 311.583 505.643 312.813 504.025 312.813ZM511.479 314V307.514H511.54L514.493 313.736H515.662L518.615 307.514H518.677V314H520.197V304.859H518.413L515.144 311.979H515.073L511.821 304.859H509.967V314H511.479ZM526.139 314.158C528.661 314.158 530.366 312.339 530.366 309.43C530.366 306.512 528.661 304.701 526.139 304.701C523.607 304.701 521.902 306.512 521.902 309.43C521.902 312.339 523.607 314.158 526.139 314.158ZM526.139 312.813C524.521 312.813 523.458 311.583 523.458 309.43C523.458 307.276 524.521 306.046 526.139 306.046C527.756 306.046 528.811 307.276 528.811 309.43C528.811 311.583 527.756 312.813 526.139 312.813ZM539.683 307.856C539.489 306.213 538.127 304.701 535.842 304.701C533.319 304.701 531.641 306.547 531.641 309.43C531.641 312.374 533.328 314.158 535.859 314.158C537.934 314.158 539.463 312.875 539.7 311.056H538.197C537.934 312.154 537.116 312.813 535.868 312.813C534.286 312.813 533.196 311.557 533.196 309.43C533.196 307.355 534.269 306.046 535.851 306.046C537.195 306.046 537.969 306.863 538.188 307.856H539.683ZM547.786 304.859H540.368V306.116H543.312V314H544.842V306.116H547.786V304.859ZM549.201 314H552.444C554.536 314 555.881 312.796 555.881 310.889C555.881 308.981 554.536 307.777 552.444 307.777H550.73V304.859H549.201V314ZM552.418 309.034C553.596 309.034 554.369 309.764 554.369 310.889C554.369 312.005 553.604 312.743 552.418 312.743H550.73V309.034H552.418Z" fill="white"/>
<path d="M579.176 440.576H572.9V436.217H578.851V434.811H572.9V430.741H579.176V429.317H571.318V442H579.176V440.576ZM581.716 444.417V442H588.809V444.417H590.232V440.743H588.782V432.859H582.489L582.138 437.931C582.05 439.161 581.725 440.304 581.057 440.743H580.292V444.417H581.716ZM587.262 440.743H582.806V440.673C583.236 440.093 583.474 439.1 583.553 437.966L583.834 434.116H587.262V440.743ZM593.115 442L597.668 435.206H597.738V442H599.268V432.859H597.756L593.203 439.653H593.133V432.859H591.604V442H593.115ZM602.924 442V435.514H602.985L605.938 441.736H607.107L610.061 435.514H610.122V442H611.643V432.859H609.858L606.589 439.979H606.519L603.267 432.859H601.412V442H602.924ZM618.99 442L623.543 435.206H623.613V442H625.143V432.859H623.631L619.078 439.653H619.008V432.859H617.479V442H618.99ZM630.337 442.158C632.481 442.158 633.905 441.016 633.905 439.328C633.905 438.3 633.281 437.544 632.077 437.28V437.21C633.026 436.99 633.65 436.146 633.65 435.197C633.65 433.712 632.517 432.701 630.434 432.701C628.5 432.701 627.182 433.659 626.988 435.171H628.474C628.597 434.441 629.353 433.976 630.434 433.976C631.611 433.976 632.156 434.538 632.156 435.32C632.156 436.243 631.541 436.7 630.337 436.7H628.966V437.948H630.337C631.717 437.948 632.402 438.396 632.402 439.398C632.402 440.269 631.664 440.893 630.337 440.893C629.203 440.893 628.447 440.427 628.271 439.627H626.725C626.883 441.174 628.333 442.158 630.337 442.158ZM646.034 432.859H638.616V434.116H641.561V442H643.09V434.116H646.034V432.859ZM654.656 442.158C657.223 442.158 658.805 440.365 658.805 437.43C658.805 434.485 657.223 432.701 654.656 432.701C652.336 432.701 650.824 434.169 650.552 436.63H648.979V432.859H647.449V442H648.979V437.887H650.517C650.684 440.55 652.23 442.158 654.656 442.158ZM654.656 440.805C653.004 440.805 652.072 439.574 652.072 437.43C652.072 435.276 653.004 434.055 654.656 434.055C656.309 434.055 657.24 435.276 657.24 437.43C657.24 439.574 656.309 440.805 654.656 440.805ZM664.43 442.158C667.075 442.158 668.701 440.392 668.701 437.518C668.701 434.793 667.128 433.053 664.658 433.053C663.252 433.053 662.109 433.615 661.512 434.696H661.441C661.811 431.963 662.566 430.847 665.106 430.75L665.783 430.724C666.838 430.68 667.805 430.451 668.095 430.188V428.852C667.576 429.124 666.592 429.3 665.713 429.344L665.036 429.37C661.485 429.502 660.149 431.603 660.149 436.647C660.149 440.277 661.626 442.158 664.43 442.158ZM664.43 440.805C662.707 440.805 661.714 439.618 661.714 437.518C661.714 435.522 662.707 434.389 664.43 434.389C666.144 434.389 667.137 435.522 667.137 437.518C667.137 439.618 666.144 440.805 664.43 440.805ZM671.918 442L676.471 435.206H676.541V442H678.07V432.859H676.559L672.006 439.653H671.936V432.859H670.406V442H671.918ZM681.814 437.605L685.743 442H687.712L683.335 437.184L687.589 432.859H685.699L681.814 436.902H681.744V432.859H680.215V442H681.744V437.605H681.814ZM692.607 442.158C695.13 442.158 696.835 440.339 696.835 437.43C696.835 434.512 695.13 432.701 692.607 432.701C690.076 432.701 688.371 434.512 688.371 437.43C688.371 440.339 690.076 442.158 692.607 442.158ZM692.607 440.813C690.99 440.813 689.927 439.583 689.927 437.43C689.927 435.276 690.99 434.046 692.607 434.046C694.225 434.046 695.279 435.276 695.279 437.43C695.279 439.583 694.225 440.813 692.607 440.813ZM702.486 442C704.429 442 705.624 440.989 705.624 439.372C705.624 438.256 704.868 437.438 703.717 437.28V437.21C704.561 437.034 705.22 436.164 705.22 435.224C705.22 433.756 704.174 432.859 702.46 432.859H698.549V442H702.486ZM700.078 434.099H702.231C703.189 434.099 703.708 434.556 703.708 435.382C703.708 436.27 703.154 436.7 702.003 436.7H700.078V434.099ZM700.078 437.931H702.126C703.462 437.931 704.104 438.388 704.104 439.337C704.104 440.26 703.506 440.761 702.398 440.761H700.078V437.931ZM708.586 435.004C709.148 435.004 709.588 434.564 709.588 434.002C709.588 433.439 709.148 433 708.586 433C708.023 433 707.584 433.439 707.584 434.002C707.584 434.564 708.023 435.004 708.586 435.004ZM708.586 442.088C709.148 442.088 709.588 441.648 709.588 441.086C709.588 440.523 709.148 440.084 708.586 440.084C708.023 440.084 707.584 440.523 707.584 441.086C707.584 441.648 708.023 442.088 708.586 442.088ZM719.95 442.211C722.596 442.211 724.468 440.427 724.468 437.878C724.468 435.443 722.71 433.677 720.275 433.677C719.045 433.677 717.99 434.134 717.393 434.986H717.357L717.788 430.724H723.747V429.317H716.487L715.837 436.551H717.234C717.823 435.531 718.79 435.039 719.994 435.039C721.682 435.039 722.886 436.243 722.886 437.922C722.886 439.627 721.69 440.822 719.968 440.822C718.447 440.822 717.296 439.891 717.155 438.537H715.6C715.731 440.699 717.524 442.211 719.95 442.211ZM733.793 442C735.735 442 736.931 440.989 736.931 439.372C736.931 438.256 736.175 437.438 735.023 437.28V437.21C735.867 437.034 736.526 436.164 736.526 435.224C736.526 433.756 735.48 432.859 733.767 432.859H729.855V442H733.793ZM731.385 434.099H733.538C734.496 434.099 735.015 434.556 735.015 435.382C735.015 436.27 734.461 436.7 733.31 436.7H731.385V434.099ZM731.385 437.931H733.433C734.769 437.931 735.41 438.388 735.41 439.337C735.41 440.26 734.812 440.761 733.705 440.761H731.385V437.931ZM740.191 442L744.744 435.206H744.814V442H746.344V432.859H744.832L740.279 439.653H740.209V432.859H738.68V442H740.191ZM749.007 444.417V442H756.1V444.417H757.523V440.743H756.073V432.859H749.78L749.429 437.931C749.341 439.161 749.016 440.304 748.348 440.743H747.583V444.417H749.007ZM754.553 440.743H750.097V440.673C750.527 440.093 750.765 439.1 750.844 437.966L751.125 434.116H754.553V440.743ZM762.691 442.158C765.214 442.158 766.919 440.339 766.919 437.43C766.919 434.512 765.214 432.701 762.691 432.701C760.16 432.701 758.455 434.512 758.455 437.43C758.455 440.339 760.16 442.158 762.691 442.158ZM762.691 440.813C761.074 440.813 760.011 439.583 760.011 437.43C760.011 435.276 761.074 434.046 762.691 434.046C764.309 434.046 765.363 435.276 765.363 437.43C765.363 439.583 764.309 440.813 762.691 440.813ZM772.57 442C774.513 442 775.708 440.989 775.708 439.372C775.708 438.256 774.952 437.438 773.801 437.28V437.21C774.645 437.034 775.304 436.164 775.304 435.224C775.304 433.756 774.258 432.859 772.544 432.859H768.633V442H772.57ZM770.162 434.099H772.315C773.273 434.099 773.792 434.556 773.792 435.382C773.792 436.27 773.238 436.7 772.087 436.7H770.162V434.099ZM770.162 437.931H772.21C773.546 437.931 774.188 438.388 774.188 439.337C774.188 440.26 773.59 440.761 772.482 440.761H770.162V437.931ZM782.66 442V435.514H782.722L785.675 441.736H786.844L789.797 435.514H789.858V442H791.379V432.859H789.595L786.325 439.979H786.255L783.003 432.859H781.148V442H782.66ZM799.597 439.381C799.342 440.242 798.489 440.831 797.329 440.831C795.686 440.831 794.657 439.68 794.657 437.931V437.843H801.214V437.263C801.214 434.494 799.693 432.701 797.224 432.701C794.701 432.701 793.084 434.626 793.084 437.465C793.084 440.339 794.675 442.158 797.294 442.158C799.289 442.158 800.836 440.98 801.1 439.381H799.597ZM797.197 434.028C798.639 434.028 799.597 435.118 799.632 436.647H794.666C794.763 435.127 795.765 434.028 797.197 434.028ZM808.931 442H810.46V432.859H808.931V436.63H804.457V432.859H802.928V442H804.457V437.887H808.931V442ZM819.82 442.158C822.387 442.158 823.969 440.365 823.969 437.43C823.969 434.485 822.387 432.701 819.82 432.701C817.5 432.701 815.988 434.169 815.716 436.63H814.143V432.859H812.613V442H814.143V437.887H815.681C815.848 440.55 817.395 442.158 819.82 442.158ZM819.82 440.805C818.168 440.805 817.236 439.574 817.236 437.43C817.236 435.276 818.168 434.055 819.82 434.055C821.473 434.055 822.404 435.276 822.404 437.43C822.404 439.574 821.473 440.805 819.82 440.805ZM577.075 463H578.604V453.859H577.075V457.63H572.602V453.859H571.072V463H572.602V458.887H577.075V463ZM583.438 463.158C584.669 463.158 585.829 462.473 586.374 461.427H586.409V463H587.859V456.681C587.859 454.861 586.506 453.701 584.361 453.701C582.199 453.701 580.846 454.914 580.74 456.496H582.217C582.41 455.6 583.148 455.046 584.326 455.046C585.592 455.046 586.33 455.714 586.33 456.83V457.595L583.711 457.744C581.602 457.867 580.397 458.852 580.397 460.416C580.397 462.06 581.619 463.158 583.438 463.158ZM583.781 461.857C582.683 461.857 581.953 461.286 581.953 460.416C581.953 459.555 582.656 459.01 583.887 458.931L586.33 458.781V459.528C586.33 460.847 585.223 461.857 583.781 461.857ZM597.598 463C599.54 463 600.735 461.989 600.735 460.372C600.735 459.256 599.979 458.438 598.828 458.28V458.21C599.672 458.034 600.331 457.164 600.331 456.224C600.331 454.756 599.285 453.859 597.571 453.859H593.66V463H597.598ZM595.189 455.099H597.343C598.301 455.099 598.819 455.556 598.819 456.382C598.819 457.27 598.266 457.7 597.114 457.7H595.189V455.099ZM595.189 458.931H597.237C598.573 458.931 599.215 459.388 599.215 460.337C599.215 461.26 598.617 461.761 597.51 461.761H595.189V458.931ZM610.307 463H611.818V453.859H610.307V463ZM602.484 463H605.728C607.819 463 609.164 461.796 609.164 459.889C609.164 457.981 607.819 456.777 605.728 456.777H604.014V453.859H602.484V463ZM605.701 458.034C606.879 458.034 607.652 458.764 607.652 459.889C607.652 461.005 606.888 461.743 605.701 461.743H604.014V458.034H605.701ZM617.883 463.158C620.528 463.158 622.154 461.392 622.154 458.518C622.154 455.793 620.581 454.053 618.111 454.053C616.705 454.053 615.562 454.615 614.965 455.696H614.895C615.264 452.963 616.02 451.847 618.56 451.75L619.236 451.724C620.291 451.68 621.258 451.451 621.548 451.188V449.852C621.029 450.124 620.045 450.3 619.166 450.344L618.489 450.37C614.938 450.502 613.603 452.603 613.603 457.647C613.603 461.277 615.079 463.158 617.883 463.158ZM617.883 461.805C616.16 461.805 615.167 460.618 615.167 458.518C615.167 456.522 616.16 455.389 617.883 455.389C619.597 455.389 620.59 456.522 620.59 458.518C620.59 460.618 619.597 461.805 617.883 461.805ZM627.656 463.158C630.179 463.158 631.884 461.339 631.884 458.43C631.884 455.512 630.179 453.701 627.656 453.701C625.125 453.701 623.42 455.512 623.42 458.43C623.42 461.339 625.125 463.158 627.656 463.158ZM627.656 461.813C626.039 461.813 624.976 460.583 624.976 458.43C624.976 456.276 626.039 455.046 627.656 455.046C629.273 455.046 630.328 456.276 630.328 458.43C630.328 460.583 629.273 461.813 627.656 461.813ZM638.045 453.701C636.718 453.701 635.654 454.378 635.092 455.406H635.057V453.859H633.606V466.05H635.136V461.515H635.171C635.716 462.517 636.771 463.158 638.08 463.158C640.383 463.158 641.956 461.295 641.956 458.43C641.956 455.564 640.374 453.701 638.045 453.701ZM637.746 461.813C636.182 461.813 635.127 460.469 635.127 458.43C635.127 456.399 636.182 455.046 637.746 455.046C639.372 455.046 640.392 456.364 640.392 458.43C640.392 460.504 639.372 461.813 637.746 461.813ZM647.959 458.008C647.959 461.066 648.768 463.554 650.455 465.698H651.738C650.49 464.248 649.515 460.882 649.515 458.008C649.515 455.134 650.49 451.768 651.738 450.317H650.455C648.768 452.462 647.959 454.949 647.959 458.008ZM657.1 463C659.042 463 660.237 461.989 660.237 460.372C660.237 459.256 659.481 458.438 658.33 458.28V458.21C659.174 458.034 659.833 457.164 659.833 456.224C659.833 454.756 658.787 453.859 657.073 453.859H653.162V463H657.1ZM654.691 455.099H656.845C657.803 455.099 658.321 455.556 658.321 456.382C658.321 457.27 657.768 457.7 656.616 457.7H654.691V455.099ZM654.691 458.931H656.739C658.075 458.931 658.717 459.388 658.717 460.337C658.717 461.26 658.119 461.761 657.012 461.761H654.691V458.931ZM668.06 460.381C667.805 461.242 666.952 461.831 665.792 461.831C664.148 461.831 663.12 460.68 663.12 458.931V458.843H669.677V458.263C669.677 455.494 668.156 453.701 665.687 453.701C663.164 453.701 661.547 455.626 661.547 458.465C661.547 461.339 663.138 463.158 665.757 463.158C667.752 463.158 669.299 461.98 669.562 460.381H668.06ZM665.66 455.028C667.102 455.028 668.06 456.118 668.095 457.647H663.129C663.226 456.127 664.228 455.028 665.66 455.028ZM677.271 455.116V453.859H671.391V463H672.92V455.116H677.271ZM681.173 463.158C682.403 463.158 683.563 462.473 684.108 461.427H684.144V463H685.594V456.681C685.594 454.861 684.24 453.701 682.096 453.701C679.934 453.701 678.58 454.914 678.475 456.496H679.951C680.145 455.6 680.883 455.046 682.061 455.046C683.326 455.046 684.064 455.714 684.064 456.83V457.595L681.445 457.744C679.336 457.867 678.132 458.852 678.132 460.416C678.132 462.06 679.354 463.158 681.173 463.158ZM681.516 461.857C680.417 461.857 679.688 461.286 679.688 460.416C679.688 459.555 680.391 459.01 681.621 458.931L684.064 458.781V459.528C684.064 460.847 682.957 461.857 681.516 461.857ZM693.706 463H695.235V453.859H693.706V457.63H689.232V453.859H687.703V463H689.232V458.887H693.706V463ZM698.355 465.522L699.56 461.049H697.934L697.081 465.522H698.355ZM712.374 456.856C712.181 455.213 710.818 453.701 708.533 453.701C706.011 453.701 704.332 455.547 704.332 458.43C704.332 461.374 706.02 463.158 708.551 463.158C710.625 463.158 712.154 461.875 712.392 460.056H710.889C710.625 461.154 709.808 461.813 708.56 461.813C706.978 461.813 705.888 460.557 705.888 458.43C705.888 456.355 706.96 455.046 708.542 455.046C709.887 455.046 710.66 455.863 710.88 456.856H712.374ZM719.88 463H721.418V453.859H713.965V463H715.494V455.116H719.88V463ZM727.359 463.158C729.882 463.158 731.587 461.339 731.587 458.43C731.587 455.512 729.882 453.701 727.359 453.701C724.828 453.701 723.123 455.512 723.123 458.43C723.123 461.339 724.828 463.158 727.359 463.158ZM727.359 461.813C725.742 461.813 724.679 460.583 724.679 458.43C724.679 456.276 725.742 455.046 727.359 455.046C728.977 455.046 730.031 456.276 730.031 458.43C730.031 460.583 728.977 461.813 727.359 461.813ZM737.748 453.701C736.421 453.701 735.357 454.378 734.795 455.406H734.76V453.859H733.31V466.05H734.839V461.515H734.874C735.419 462.517 736.474 463.158 737.783 463.158C740.086 463.158 741.659 461.295 741.659 458.43C741.659 455.564 740.077 453.701 737.748 453.701ZM737.449 461.813C735.885 461.813 734.83 460.469 734.83 458.43C734.83 456.399 735.885 455.046 737.449 455.046C739.075 455.046 740.095 456.364 740.095 458.43C740.095 460.504 739.075 461.813 737.449 461.813ZM749.71 453.859H742.292V455.116H745.236V463H746.766V455.116H749.71V453.859ZM751.477 465.522L752.681 461.049H751.055L750.202 465.522H751.477ZM574.992 484.158C577.638 484.158 579.264 482.392 579.264 479.518C579.264 476.793 577.69 475.053 575.221 475.053C573.814 475.053 572.672 475.615 572.074 476.696H572.004C572.373 473.963 573.129 472.847 575.669 472.75L576.346 472.724C577.4 472.68 578.367 472.451 578.657 472.188V470.852C578.139 471.124 577.154 471.3 576.275 471.344L575.599 471.37C572.048 471.502 570.712 473.603 570.712 478.647C570.712 482.277 572.188 484.158 574.992 484.158ZM574.992 482.805C573.27 482.805 572.276 481.618 572.276 479.518C572.276 477.522 573.27 476.389 574.992 476.389C576.706 476.389 577.699 477.522 577.699 479.518C577.699 481.618 576.706 482.805 574.992 482.805ZM587.042 481.381C586.787 482.242 585.935 482.831 584.774 482.831C583.131 482.831 582.103 481.68 582.103 479.931V479.843H588.659V479.263C588.659 476.494 587.139 474.701 584.669 474.701C582.146 474.701 580.529 476.626 580.529 479.465C580.529 482.339 582.12 484.158 584.739 484.158C586.734 484.158 588.281 482.98 588.545 481.381H587.042ZM584.643 476.028C586.084 476.028 587.042 477.118 587.077 478.647H582.111C582.208 477.127 583.21 476.028 584.643 476.028ZM593.423 484.158C595.567 484.158 596.991 483.016 596.991 481.328C596.991 480.3 596.367 479.544 595.163 479.28V479.21C596.112 478.99 596.736 478.146 596.736 477.197C596.736 475.712 595.603 474.701 593.52 474.701C591.586 474.701 590.268 475.659 590.074 477.171H591.56C591.683 476.441 592.438 475.976 593.52 475.976C594.697 475.976 595.242 476.538 595.242 477.32C595.242 478.243 594.627 478.7 593.423 478.7H592.052V479.948H593.423C594.803 479.948 595.488 480.396 595.488 481.398C595.488 482.269 594.75 482.893 593.423 482.893C592.289 482.893 591.533 482.427 591.357 481.627H589.811C589.969 483.174 591.419 484.158 593.423 484.158ZM601.025 479.966L601.307 476.116H604.383V484H605.912V474.859H599.927L599.575 479.931C599.461 481.609 599.118 482.673 598.213 482.673C597.993 482.673 597.826 482.629 597.747 482.603V483.982C597.853 484.026 598.028 484.079 598.292 484.079C600.217 484.079 600.841 482.488 601.025 479.966ZM610.755 484.158C611.985 484.158 613.146 483.473 613.69 482.427H613.726V484H615.176V477.681C615.176 475.861 613.822 474.701 611.678 474.701C609.516 474.701 608.162 475.914 608.057 477.496H609.533C609.727 476.6 610.465 476.046 611.643 476.046C612.908 476.046 613.646 476.714 613.646 477.83V478.595L611.027 478.744C608.918 478.867 607.714 479.852 607.714 481.416C607.714 483.06 608.936 484.158 610.755 484.158ZM611.098 482.857C609.999 482.857 609.27 482.286 609.27 481.416C609.27 480.555 609.973 480.01 611.203 479.931L613.646 479.781V480.528C613.646 481.847 612.539 482.857 611.098 482.857ZM618.885 479.605L622.813 484H624.782L620.405 479.184L624.659 474.859H622.77L618.885 478.902H618.814V474.859H617.285V484H618.814V479.605H618.885ZM632.569 474.859H625.151V476.116H628.096V484H629.625V476.116H632.569V474.859ZM637.605 484.158C640.128 484.158 641.833 482.339 641.833 479.43C641.833 476.512 640.128 474.701 637.605 474.701C635.074 474.701 633.369 476.512 633.369 479.43C633.369 482.339 635.074 484.158 637.605 484.158ZM637.605 482.813C635.988 482.813 634.925 481.583 634.925 479.43C634.925 477.276 635.988 476.046 637.605 476.046C639.223 476.046 640.277 477.276 640.277 479.43C640.277 481.583 639.223 482.813 637.605 482.813ZM646.597 484.158C648.741 484.158 650.165 483.016 650.165 481.328C650.165 480.3 649.541 479.544 648.337 479.28V479.21C649.286 478.99 649.91 478.146 649.91 477.197C649.91 475.712 648.776 474.701 646.693 474.701C644.76 474.701 643.441 475.659 643.248 477.171H644.733C644.856 476.441 645.612 475.976 646.693 475.976C647.871 475.976 648.416 476.538 648.416 477.32C648.416 478.243 647.801 478.7 646.597 478.7H645.226V479.948H646.597C647.977 479.948 648.662 480.396 648.662 481.398C648.662 482.269 647.924 482.893 646.597 482.893C645.463 482.893 644.707 482.427 644.531 481.627H642.984C643.143 483.174 644.593 484.158 646.597 484.158ZM657.917 484H659.446V474.859H657.917V478.63H653.443V474.859H651.914V484H653.443V479.887H657.917V484ZM665.396 484.158C667.919 484.158 669.624 482.339 669.624 479.43C669.624 476.512 667.919 474.701 665.396 474.701C662.865 474.701 661.16 476.512 661.16 479.43C661.16 482.339 662.865 484.158 665.396 484.158ZM665.396 482.813C663.779 482.813 662.716 481.583 662.716 479.43C662.716 477.276 663.779 476.046 665.396 476.046C667.014 476.046 668.068 477.276 668.068 479.43C668.068 481.583 667.014 482.813 665.396 482.813ZM677.411 481.381C677.156 482.242 676.304 482.831 675.144 482.831C673.5 482.831 672.472 481.68 672.472 479.931V479.843H679.028V479.263C679.028 476.494 677.508 474.701 675.038 474.701C672.516 474.701 670.898 476.626 670.898 479.465C670.898 482.339 672.489 484.158 675.108 484.158C677.104 484.158 678.65 482.98 678.914 481.381H677.411ZM675.012 476.028C676.453 476.028 677.411 477.118 677.446 478.647H672.48C672.577 477.127 673.579 476.028 675.012 476.028ZM681.709 486.522L682.913 482.049H681.287L680.435 486.522H681.709ZM692.045 484.158C694.69 484.158 696.316 482.392 696.316 479.518C696.316 476.793 694.743 475.053 692.273 475.053C690.867 475.053 689.725 475.615 689.127 476.696H689.057C689.426 473.963 690.182 472.847 692.722 472.75L693.398 472.724C694.453 472.68 695.42 472.451 695.71 472.188V470.852C695.191 471.124 694.207 471.3 693.328 471.344L692.651 471.37C689.101 471.502 687.765 473.603 687.765 478.647C687.765 482.277 689.241 484.158 692.045 484.158ZM692.045 482.805C690.322 482.805 689.329 481.618 689.329 479.518C689.329 477.522 690.322 476.389 692.045 476.389C693.759 476.389 694.752 477.522 694.752 479.518C694.752 481.618 693.759 482.805 692.045 482.805ZM704.095 481.381C703.84 482.242 702.987 482.831 701.827 482.831C700.184 482.831 699.155 481.68 699.155 479.931V479.843H705.712V479.263C705.712 476.494 704.191 474.701 701.722 474.701C699.199 474.701 697.582 476.626 697.582 479.465C697.582 482.339 699.173 484.158 701.792 484.158C703.787 484.158 705.334 482.98 705.598 481.381H704.095ZM701.695 476.028C703.137 476.028 704.095 477.118 704.13 478.647H699.164C699.261 477.127 700.263 476.028 701.695 476.028ZM710.476 484.158C712.62 484.158 714.044 483.016 714.044 481.328C714.044 480.3 713.42 479.544 712.216 479.28V479.21C713.165 478.99 713.789 478.146 713.789 477.197C713.789 475.712 712.655 474.701 710.572 474.701C708.639 474.701 707.32 475.659 707.127 477.171H708.612C708.735 476.441 709.491 475.976 710.572 475.976C711.75 475.976 712.295 476.538 712.295 477.32C712.295 478.243 711.68 478.7 710.476 478.7H709.104V479.948H710.476C711.855 479.948 712.541 480.396 712.541 481.398C712.541 482.269 711.803 482.893 710.476 482.893C709.342 482.893 708.586 482.427 708.41 481.627H706.863C707.021 483.174 708.472 484.158 710.476 484.158ZM721.673 476.116V474.859H715.793V484H717.322V476.116H721.673ZM724.916 479.966L725.197 476.116H728.273V484H729.803V474.859H723.817L723.466 479.931C723.352 481.609 723.009 482.673 722.104 482.673C721.884 482.673 721.717 482.629 721.638 482.603V483.982C721.743 484.026 721.919 484.079 722.183 484.079C724.107 484.079 724.731 482.488 724.916 479.966ZM739.172 484.158C741.738 484.158 743.32 482.365 743.32 479.43C743.32 476.485 741.738 474.701 739.172 474.701C736.852 474.701 735.34 476.169 735.067 478.63H733.494V474.859H731.965V484H733.494V479.887H735.032C735.199 482.55 736.746 484.158 739.172 484.158ZM739.172 482.805C737.52 482.805 736.588 481.574 736.588 479.43C736.588 477.276 737.52 476.055 739.172 476.055C740.824 476.055 741.756 477.276 741.756 479.43C741.756 481.574 740.824 482.805 739.172 482.805ZM751.362 474.859H743.944V476.116H746.889V484H748.418V476.116H751.362V474.859ZM758.675 481.381C758.42 482.242 757.567 482.831 756.407 482.831C754.764 482.831 753.735 481.68 753.735 479.931V479.843H760.292V479.263C760.292 476.494 758.771 474.701 756.302 474.701C753.779 474.701 752.162 476.626 752.162 479.465C752.162 482.339 753.753 484.158 756.372 484.158C758.367 484.158 759.914 482.98 760.178 481.381H758.675ZM756.275 476.028C757.717 476.028 758.675 477.118 758.71 478.647H753.744C753.841 477.127 754.843 476.028 756.275 476.028ZM768.009 484H769.538V474.859H768.009V478.63H763.535V474.859H762.006V484H763.535V479.887H768.009V484ZM775.488 484.158C778.011 484.158 779.716 482.339 779.716 479.43C779.716 476.512 778.011 474.701 775.488 474.701C772.957 474.701 771.252 476.512 771.252 479.43C771.252 482.339 772.957 484.158 775.488 484.158ZM775.488 482.813C773.871 482.813 772.808 481.583 772.808 479.43C772.808 477.276 773.871 476.046 775.488 476.046C777.105 476.046 778.16 477.276 778.16 479.43C778.16 481.583 777.105 482.813 775.488 482.813ZM785.367 484C787.31 484 788.505 482.989 788.505 481.372C788.505 480.256 787.749 479.438 786.598 479.28V479.21C787.441 479.034 788.101 478.164 788.101 477.224C788.101 475.756 787.055 474.859 785.341 474.859H781.43V484H785.367ZM782.959 476.099H785.112C786.07 476.099 786.589 476.556 786.589 477.382C786.589 478.27 786.035 478.7 784.884 478.7H782.959V476.099ZM782.959 479.931H785.007C786.343 479.931 786.984 480.388 786.984 481.337C786.984 482.26 786.387 482.761 785.279 482.761H782.959V479.931ZM794.051 484.158C796.573 484.158 798.278 482.339 798.278 479.43C798.278 476.512 796.573 474.701 794.051 474.701C791.52 474.701 789.814 476.512 789.814 479.43C789.814 482.339 791.52 484.158 794.051 484.158ZM794.051 482.813C792.434 482.813 791.37 481.583 791.37 479.43C791.37 477.276 792.434 476.046 794.051 476.046C795.668 476.046 796.723 477.276 796.723 479.43C796.723 481.583 795.668 482.813 794.051 482.813ZM806.065 481.381C805.811 482.242 804.958 482.831 803.798 482.831C802.154 482.831 801.126 481.68 801.126 479.931V479.843H807.683V479.263C807.683 476.494 806.162 474.701 803.692 474.701C801.17 474.701 799.553 476.626 799.553 479.465C799.553 482.339 801.144 484.158 803.763 484.158C805.758 484.158 807.305 482.98 807.568 481.381H806.065ZM803.666 476.028C805.107 476.028 806.065 477.118 806.101 478.647H801.135C801.231 477.127 802.233 476.028 803.666 476.028ZM810.363 486.522L811.567 482.049H809.941L809.089 486.522H810.363ZM574.869 505.158C577.392 505.158 579.097 503.339 579.097 500.43C579.097 497.512 577.392 495.701 574.869 495.701C572.338 495.701 570.633 497.512 570.633 500.43C570.633 503.339 572.338 505.158 574.869 505.158ZM574.869 503.813C573.252 503.813 572.188 502.583 572.188 500.43C572.188 498.276 573.252 497.046 574.869 497.046C576.486 497.046 577.541 498.276 577.541 500.43C577.541 502.583 576.486 503.813 574.869 503.813ZM584.73 505.158C587.376 505.158 589.002 503.392 589.002 500.518C589.002 497.793 587.429 496.053 584.959 496.053C583.553 496.053 582.41 496.615 581.812 497.696H581.742C582.111 494.963 582.867 493.847 585.407 493.75L586.084 493.724C587.139 493.68 588.105 493.451 588.396 493.188V491.852C587.877 492.124 586.893 492.3 586.014 492.344L585.337 492.37C581.786 492.502 580.45 494.603 580.45 499.647C580.45 503.277 581.927 505.158 584.73 505.158ZM584.73 503.805C583.008 503.805 582.015 502.618 582.015 500.518C582.015 498.522 583.008 497.389 584.73 497.389C586.444 497.389 587.438 498.522 587.438 500.518C587.438 502.618 586.444 503.805 584.73 503.805ZM598.529 505H600.041V495.859H598.529V505ZM590.707 505H593.95C596.042 505 597.387 503.796 597.387 501.889C597.387 499.981 596.042 498.777 593.95 498.777H592.236V495.859H590.707V505ZM593.924 500.034C595.102 500.034 595.875 500.764 595.875 501.889C595.875 503.005 595.11 503.743 593.924 503.743H592.236V500.034H593.924ZM609.155 505V495.859H607.626V499.709C607.195 500.14 606.396 500.43 605.376 500.43C604.11 500.43 603.486 499.665 603.486 498.47V495.859H601.957V498.487C601.957 500.438 603.108 501.766 605.323 501.766C606.29 501.766 606.976 501.555 607.494 501.212H607.626V505H609.155ZM617.312 505H618.841V495.859H617.312V499.63H612.838V495.859H611.309V505H612.838V500.887H617.312V505ZM624.791 505.158C627.313 505.158 629.019 503.339 629.019 500.43C629.019 497.512 627.313 495.701 624.791 495.701C622.26 495.701 620.555 497.512 620.555 500.43C620.555 503.339 622.26 505.158 624.791 505.158ZM624.791 503.813C623.174 503.813 622.11 502.583 622.11 500.43C622.11 498.276 623.174 497.046 624.791 497.046C626.408 497.046 627.463 498.276 627.463 500.43C627.463 502.583 626.408 503.813 624.791 503.813ZM636.806 502.381C636.551 503.242 635.698 503.831 634.538 503.831C632.895 503.831 631.866 502.68 631.866 500.931V500.843H638.423V500.263C638.423 497.494 636.902 495.701 634.433 495.701C631.91 495.701 630.293 497.626 630.293 500.465C630.293 503.339 631.884 505.158 634.503 505.158C636.498 505.158 638.045 503.98 638.309 502.381H636.806ZM634.406 497.028C635.848 497.028 636.806 498.118 636.841 499.647H631.875C631.972 498.127 632.974 497.028 634.406 497.028ZM643.195 500.008C643.195 496.949 642.387 494.462 640.699 492.317H639.416C640.664 493.768 641.64 497.134 641.64 500.008C641.64 502.882 640.664 506.248 639.416 507.698H640.699C642.387 505.554 643.195 503.066 643.195 500.008Z" fill="white"/>
<path d="M150.171 425H159.452V427.505H160.92V423.576H159.338V412.317H151.489L151.006 420.298C150.909 421.959 150.566 423.084 149.644 423.576H148.703V427.505H150.171V425ZM152.491 420.333L152.904 413.741H157.756V423.576H151.604V423.506C152.228 422.75 152.403 421.783 152.491 420.333ZM168.593 422.381C168.338 423.242 167.485 423.831 166.325 423.831C164.682 423.831 163.653 422.68 163.653 420.931V420.843H170.21V420.263C170.21 417.494 168.689 415.701 166.22 415.701C163.697 415.701 162.08 417.626 162.08 420.465C162.08 423.339 163.671 425.158 166.29 425.158C168.285 425.158 169.832 423.98 170.096 422.381H168.593ZM166.193 417.028C167.635 417.028 168.593 418.118 168.628 419.647H163.662C163.759 418.127 164.761 417.028 166.193 417.028ZM174.033 420.966L174.314 417.116H177.391V425H178.92V415.859H172.935L172.583 420.931C172.469 422.609 172.126 423.673 171.221 423.673C171.001 423.673 170.834 423.629 170.755 423.603V424.982C170.86 425.026 171.036 425.079 171.3 425.079C173.225 425.079 173.849 423.488 174.033 420.966ZM183.763 425.158C184.993 425.158 186.153 424.473 186.698 423.427H186.733V425H188.184V418.681C188.184 416.861 186.83 415.701 184.686 415.701C182.523 415.701 181.17 416.914 181.064 418.496H182.541C182.734 417.6 183.473 417.046 184.65 417.046C185.916 417.046 186.654 417.714 186.654 418.83V419.595L184.035 419.744C181.926 419.867 180.722 420.852 180.722 422.416C180.722 424.06 181.943 425.158 183.763 425.158ZM184.105 423.857C183.007 423.857 182.277 423.286 182.277 422.416C182.277 421.555 182.98 421.01 184.211 420.931L186.654 420.781V421.528C186.654 422.847 185.547 423.857 184.105 423.857ZM196.366 422.381C196.111 423.242 195.259 423.831 194.099 423.831C192.455 423.831 191.427 422.68 191.427 420.931V420.843H197.983V420.263C197.983 417.494 196.463 415.701 193.993 415.701C191.471 415.701 189.854 417.626 189.854 420.465C189.854 423.339 191.444 425.158 194.063 425.158C196.059 425.158 197.605 423.98 197.869 422.381H196.366ZM193.967 417.028C195.408 417.028 196.366 418.118 196.401 419.647H191.436C191.532 418.127 192.534 417.028 193.967 417.028ZM201.209 425V418.514H201.271L204.224 424.736H205.393L208.346 418.514H208.407V425H209.928V415.859H208.144L204.874 422.979H204.804L201.552 415.859H199.697V425H201.209ZM164.594 446.114V449.05H166.07V446.114C168.9 446.07 170.79 444.251 170.79 441.43C170.79 438.608 168.9 436.798 166.07 436.745V433.854H164.594V436.745C161.746 436.789 159.865 438.608 159.865 441.43C159.865 444.251 161.746 446.062 164.594 446.114ZM164.594 444.813C162.643 444.761 161.403 443.486 161.403 441.43C161.403 439.364 162.643 438.09 164.594 438.046V444.813ZM169.252 441.43C169.252 443.495 168.013 444.77 166.07 444.813V438.046C168.013 438.099 169.252 439.373 169.252 441.43ZM176.301 446.158C178.823 446.158 180.528 444.339 180.528 441.43C180.528 438.512 178.823 436.701 176.301 436.701C173.77 436.701 172.064 438.512 172.064 441.43C172.064 444.339 173.77 446.158 176.301 446.158ZM176.301 444.813C174.684 444.813 173.62 443.583 173.62 441.43C173.62 439.276 174.684 438.046 176.301 438.046C177.918 438.046 178.973 439.276 178.973 441.43C178.973 443.583 177.918 444.813 176.301 444.813ZM188.579 436.859H181.161V438.116H184.105V446H185.635V438.116H188.579V436.859ZM193.615 446.158C196.138 446.158 197.843 444.339 197.843 441.43C197.843 438.512 196.138 436.701 193.615 436.701C191.084 436.701 189.379 438.512 189.379 441.43C189.379 444.339 191.084 446.158 193.615 446.158ZM193.615 444.813C191.998 444.813 190.935 443.583 190.935 441.43C190.935 439.276 191.998 438.046 193.615 438.046C195.232 438.046 196.287 439.276 196.287 441.43C196.287 443.583 195.232 444.813 193.615 444.813ZM207.186 446C209.128 446 210.323 444.989 210.323 443.372C210.323 442.256 209.567 441.438 208.416 441.28V441.21C209.26 441.034 209.919 440.164 209.919 439.224C209.919 437.756 208.873 436.859 207.159 436.859H203.248V446H207.186ZM204.777 438.099H206.931C207.889 438.099 208.407 438.556 208.407 439.382C208.407 440.27 207.854 440.7 206.702 440.7H204.777V438.099ZM204.777 441.931H206.825C208.161 441.931 208.803 442.388 208.803 443.337C208.803 444.26 208.205 444.761 207.098 444.761H204.777V441.931ZM128.91 467L133.463 460.206H133.533V467H135.062V457.859H133.551L128.998 464.653H128.928V457.859H127.398V467H128.91ZM143.21 467H144.739V457.859H143.21V461.63H138.736V457.859H137.207V467H138.736V462.887H143.21V467ZM154.495 460.856C154.302 459.213 152.939 457.701 150.654 457.701C148.132 457.701 146.453 459.547 146.453 462.43C146.453 465.374 148.141 467.158 150.672 467.158C152.746 467.158 154.275 465.875 154.513 464.056H153.01C152.746 465.154 151.929 465.813 150.681 465.813C149.099 465.813 148.009 464.557 148.009 462.43C148.009 460.355 149.081 459.046 150.663 459.046C152.008 459.046 152.781 459.863 153.001 460.856H154.495ZM162.599 457.859H155.181V459.116H158.125V467H159.654V459.116H162.599V457.859ZM166.343 467.158C167.573 467.158 168.733 466.473 169.278 465.427H169.313V467H170.764V460.681C170.764 458.861 169.41 457.701 167.266 457.701C165.104 457.701 163.75 458.914 163.645 460.496H165.121C165.314 459.6 166.053 459.046 167.23 459.046C168.496 459.046 169.234 459.714 169.234 460.83V461.595L166.615 461.744C164.506 461.867 163.302 462.852 163.302 464.416C163.302 466.06 164.523 467.158 166.343 467.158ZM166.686 465.857C165.587 465.857 164.857 465.286 164.857 464.416C164.857 463.555 165.561 463.01 166.791 462.931L169.234 462.781V463.528C169.234 464.847 168.127 465.857 166.686 465.857ZM178.753 459.116V457.859H172.873V467H174.402V459.116H178.753ZM184.861 457.701C183.534 457.701 182.471 458.378 181.908 459.406H181.873V457.859H180.423V470.05H181.952V465.515H181.987C182.532 466.517 183.587 467.158 184.896 467.158C187.199 467.158 188.772 465.295 188.772 462.43C188.772 459.564 187.19 457.701 184.861 457.701ZM184.562 465.813C182.998 465.813 181.943 464.469 181.943 462.43C181.943 460.399 182.998 459.046 184.562 459.046C186.188 459.046 187.208 460.364 187.208 462.43C187.208 464.504 186.188 465.813 184.562 465.813ZM193.167 467.158C194.397 467.158 195.558 466.473 196.103 465.427H196.138V467H197.588V460.681C197.588 458.861 196.234 457.701 194.09 457.701C191.928 457.701 190.574 458.914 190.469 460.496H191.945C192.139 459.6 192.877 459.046 194.055 459.046C195.32 459.046 196.059 459.714 196.059 460.83V461.595L193.439 461.744C191.33 461.867 190.126 462.852 190.126 464.416C190.126 466.06 191.348 467.158 193.167 467.158ZM193.51 465.857C192.411 465.857 191.682 465.286 191.682 464.416C191.682 463.555 192.385 463.01 193.615 462.931L196.059 462.781V463.528C196.059 464.847 194.951 465.857 193.51 465.857ZM201.209 467V460.514H201.271L204.224 466.736H205.393L208.346 460.514H208.407V467H209.928V457.859H208.144L204.874 464.979H204.804L201.552 457.859H199.697V467H201.209Z" fill="white"/>
<path d="M417.259 578V565.317H407.318V578H408.909V566.759H415.694V578H417.259ZM424.105 568.701C422.778 568.701 421.715 569.378 421.152 570.406H421.117V568.859H419.667V581.05H421.196V576.515H421.231C421.776 577.517 422.831 578.158 424.141 578.158C426.443 578.158 428.017 576.295 428.017 573.43C428.017 570.564 426.435 568.701 424.105 568.701ZM423.807 576.813C422.242 576.813 421.188 575.469 421.188 573.43C421.188 571.399 422.242 570.046 423.807 570.046C425.433 570.046 426.452 571.364 426.452 573.43C426.452 575.504 425.433 576.813 423.807 576.813ZM431.242 578L435.795 571.206H435.865V578H437.395V568.859H435.883L431.33 575.653H431.26V568.859H429.73V578H431.242ZM442.589 578.158C444.733 578.158 446.157 577.016 446.157 575.328C446.157 574.3 445.533 573.544 444.329 573.28V573.21C445.278 572.99 445.902 572.146 445.902 571.197C445.902 569.712 444.769 568.701 442.686 568.701C440.752 568.701 439.434 569.659 439.24 571.171H440.726C440.849 570.441 441.604 569.976 442.686 569.976C443.863 569.976 444.408 570.538 444.408 571.32C444.408 572.243 443.793 572.7 442.589 572.7H441.218V573.948H442.589C443.969 573.948 444.654 574.396 444.654 575.398C444.654 576.269 443.916 576.893 442.589 576.893C441.455 576.893 440.699 576.427 440.523 575.627H438.977C439.135 577.174 440.585 578.158 442.589 578.158ZM453.979 575.381C453.725 576.242 452.872 576.831 451.712 576.831C450.068 576.831 449.04 575.68 449.04 573.931V573.843H455.597V573.263C455.597 570.494 454.076 568.701 451.606 568.701C449.084 568.701 447.467 570.626 447.467 573.465C447.467 576.339 449.058 578.158 451.677 578.158C453.672 578.158 455.219 576.98 455.482 575.381H453.979ZM451.58 570.028C453.021 570.028 453.979 571.118 454.015 572.647H449.049C449.146 571.127 450.147 570.028 451.58 570.028ZM458.822 578V571.514H458.884L461.837 577.736H463.006L465.959 571.514H466.021V578H467.541V568.859H465.757L462.487 575.979H462.417L459.165 568.859H457.311V578H458.822ZM472.146 573.966L472.428 570.116H475.504V578H477.033V568.859H471.048L470.696 573.931C470.582 575.609 470.239 576.673 469.334 576.673C469.114 576.673 468.947 576.629 468.868 576.603V577.982C468.974 578.026 469.149 578.079 469.413 578.079C471.338 578.079 471.962 576.488 472.146 573.966ZM484.214 578H485.743V568.859H482.474C480.373 568.859 479.02 570.011 479.02 571.892C479.02 573.148 479.802 574.098 481.094 574.467L478.545 578H480.312L482.632 574.748H484.214V578ZM482.482 573.491C481.305 573.491 480.54 572.814 480.54 571.865C480.54 570.767 481.296 570.116 482.482 570.116H484.214V573.491H482.482ZM493.97 575.381C493.715 576.242 492.862 576.831 491.702 576.831C490.059 576.831 489.03 575.68 489.03 573.931V573.843H495.587V573.263C495.587 570.494 494.066 568.701 491.597 568.701C489.074 568.701 487.457 570.626 487.457 573.465C487.457 576.339 489.048 578.158 491.667 578.158C493.662 578.158 495.209 576.98 495.473 575.381H493.97ZM491.57 570.028C493.012 570.028 493.97 571.118 494.005 572.647H489.039C489.136 571.127 490.138 570.028 491.57 570.028ZM498.812 578V571.514H498.874L501.827 577.736H502.996L505.949 571.514H506.011V578H507.531V568.859H505.747L502.478 575.979H502.407L499.155 568.859H497.301V578H498.812ZM517.278 571.856C517.085 570.213 515.723 568.701 513.438 568.701C510.915 568.701 509.236 570.547 509.236 573.43C509.236 576.374 510.924 578.158 513.455 578.158C515.529 578.158 517.059 576.875 517.296 575.056H515.793C515.529 576.154 514.712 576.813 513.464 576.813C511.882 576.813 510.792 575.557 510.792 573.43C510.792 571.355 511.864 570.046 513.446 570.046C514.791 570.046 515.564 570.863 515.784 571.856H517.278ZM523.888 578H525.417V568.859H522.147C520.047 568.859 518.693 570.011 518.693 571.892C518.693 573.148 519.476 574.098 520.768 574.467L518.219 578H519.985L522.306 574.748H523.888V578ZM522.156 573.491C520.979 573.491 520.214 572.814 520.214 571.865C520.214 570.767 520.97 570.116 522.156 570.116H523.888V573.491H522.156ZM528.537 580.522L529.741 576.049H528.115L527.263 580.522H528.537ZM413.075 599H414.604V589.859H413.075V593.63H408.602V589.859H407.072V599H408.602V594.887H413.075V599ZM420.555 599.158C423.077 599.158 424.782 597.339 424.782 594.43C424.782 591.512 423.077 589.701 420.555 589.701C418.023 589.701 416.318 591.512 416.318 594.43C416.318 597.339 418.023 599.158 420.555 599.158ZM420.555 597.813C418.938 597.813 417.874 596.583 417.874 594.43C417.874 592.276 418.938 591.046 420.555 591.046C422.172 591.046 423.227 592.276 423.227 594.43C423.227 596.583 422.172 597.813 420.555 597.813ZM431.137 596.214H429.625C429.933 597.945 431.392 599.158 433.448 599.158C435.988 599.158 437.649 597.339 437.649 594.43C437.649 591.582 435.988 589.701 433.466 589.701C431.26 589.701 429.897 591.107 429.643 592.672H431.154C431.392 591.775 432.165 591.046 433.457 591.046C434.811 591.046 435.839 591.995 436.032 593.63H431.937V594.878H436.076C435.979 596.759 434.898 597.813 433.439 597.813C432.235 597.813 431.427 597.225 431.137 596.214ZM445.7 589.859H438.282V591.116H441.227V599H442.756V591.116H445.7V589.859ZM450.736 599.158C453.259 599.158 454.964 597.339 454.964 594.43C454.964 591.512 453.259 589.701 450.736 589.701C448.205 589.701 446.5 591.512 446.5 594.43C446.5 597.339 448.205 599.158 450.736 599.158ZM450.736 597.813C449.119 597.813 448.056 596.583 448.056 594.43C448.056 592.276 449.119 591.046 450.736 591.046C452.354 591.046 453.408 592.276 453.408 594.43C453.408 596.583 452.354 597.813 450.736 597.813ZM466.372 599H467.901V589.859H466.372V593.63H461.898V589.859H460.369V599H461.898V594.887H466.372V599ZM476.128 596.381C475.873 597.242 475.021 597.831 473.86 597.831C472.217 597.831 471.188 596.68 471.188 594.931V594.843H477.745V594.263C477.745 591.494 476.225 589.701 473.755 589.701C471.232 589.701 469.615 591.626 469.615 594.465C469.615 597.339 471.206 599.158 473.825 599.158C475.82 599.158 477.367 597.98 477.631 596.381H476.128ZM473.729 591.028C475.17 591.028 476.128 592.118 476.163 593.647H471.197C471.294 592.127 472.296 591.028 473.729 591.028ZM489.839 589.859H482.421V591.116H485.365V599H486.895V591.116H489.839V589.859ZM494.875 599.158C497.397 599.158 499.103 597.339 499.103 594.43C499.103 591.512 497.397 589.701 494.875 589.701C492.344 589.701 490.639 591.512 490.639 594.43C490.639 597.339 492.344 599.158 494.875 599.158ZM494.875 597.813C493.258 597.813 492.194 596.583 492.194 594.43C492.194 592.276 493.258 591.046 494.875 591.046C496.492 591.046 497.547 592.276 497.547 594.43C497.547 596.583 496.492 597.813 494.875 597.813ZM507.698 599V589.859H506.169V593.709C505.738 594.14 504.938 594.43 503.919 594.43C502.653 594.43 502.029 593.665 502.029 592.47V589.859H500.5V592.487C500.5 594.438 501.651 595.766 503.866 595.766C504.833 595.766 505.519 595.555 506.037 595.212H506.169V599H507.698ZM515.854 599H517.384V589.859H515.854V593.63H511.381V589.859H509.852V599H511.381V594.887H515.854V599ZM523.334 599.158C525.856 599.158 527.562 597.339 527.562 594.43C527.562 591.512 525.856 589.701 523.334 589.701C520.803 589.701 519.098 591.512 519.098 594.43C519.098 597.339 520.803 599.158 523.334 599.158ZM523.334 597.813C521.717 597.813 520.653 596.583 520.653 594.43C520.653 592.276 521.717 591.046 523.334 591.046C524.951 591.046 526.006 592.276 526.006 594.43C526.006 596.583 524.951 597.813 523.334 597.813Z" fill="white"/>
<line x1="10.2474" y1="10.5655" x2="161.247" y2="96.5655" stroke="white"/>
<line x1="161.43" y1="96.7448" x2="215.43" y2="187.745" stroke="white"/>
<line x1="215.439" y1="187.76" x2="286.439" y2="317.76" stroke="white"/>
<line x1="286.444" y1="318.229" x2="236.444" y2="415.229" stroke="white"/>
<line x1="286.207" y1="317.545" x2="545.207" y2="435.545" stroke="white"/>
<line x1="236.29" y1="414.593" x2="406.29" y2="535.593" stroke="white"/>
<line x1="405.708" y1="535.594" x2="544.708" y2="435.594" stroke="white"/>
<circle cx="10" cy="11" r="10" fill="white"/>
<circle cx="161" cy="97" r="20" fill="#036CCA"/>
<circle cx="215" cy="188" r="10" fill="white"/>
<circle cx="286" cy="318" r="10" fill="white"/>
<circle cx="236" cy="415" r="10" fill="white"/>
<circle cx="406" cy="536" r="10" fill="white"/>
<circle cx="545" cy="436" r="10" fill="white"/>
</svg>
