<svg width="1096" height="157" viewBox="0 0 1096 157" fill="none" xmlns="http://www.w3.org/2000/svg">
<path d="M0 128.728H45.6667C91.3333 128.728 182.667 128.728 274 134.877C365.333 140.796 456.667 153.439 548 156.312C639.333 159.186 730.667 153.439 822 131.774C913.333 110.338 1004.67 73.5587 1050.33 55.169L1096 36.7794V-1.52588e-05H1050.33C1004.67 -1.52588e-05 913.333 -1.52588e-05 822 -1.52588e-05C730.667 -1.52588e-05 639.333 -1.52588e-05 548 -1.52588e-05C456.667 -1.52588e-05 365.333 -1.52588e-05 274 -1.52588e-05C182.667 -1.52588e-05 91.3333 -1.52588e-05 45.6667 -1.52588e-05H0L0 128.728Z" fill="white"/>
</svg>
