<svg width="173" height="41" viewBox="0 0 173 41" fill="none" xmlns="http://www.w3.org/2000/svg">
<path d="M28.8285 0.949219H10.7C4.79993 0.949219 0 5.74915 0 11.6492V29.778C0 35.6778 4.79993 40.4777 10.7 40.4777H28.8288C34.7286 40.4777 39.5285 35.6778 39.5285 29.778V11.6492C39.5285 5.74915 34.7286 0.949219 28.8285 0.949219V0.949219ZM37.2112 29.778C37.2112 34.4 33.4508 38.1604 28.8285 38.1604H10.7C6.07772 38.1604 2.31733 34.4 2.31733 29.778V11.6492C2.31733 7.02693 6.07772 3.26655 10.7 3.26655H28.8288C33.4508 3.26655 37.2112 7.02693 37.2112 11.6492V29.778Z" fill="#001E64"/>
<path d="M19.7623 9.90527C13.8025 9.90527 8.95404 14.7538 8.95404 20.7136C8.95404 26.6734 13.8025 31.5218 19.7623 31.5218C25.7221 31.5218 30.5706 26.6734 30.5706 20.7136C30.5706 14.7538 25.7221 9.90527 19.7623 9.90527ZM19.7623 29.2045C15.0806 29.2045 11.2714 25.3956 11.2714 20.7136C11.2714 16.0318 15.0806 12.2226 19.7623 12.2226C24.4443 12.2226 28.2533 16.0318 28.2533 20.7136C28.2533 25.3956 24.4443 29.2045 19.7623 29.2045Z" fill="#001E64"/>
<path d="M30.8304 6.06665C29.0692 6.06665 27.6367 7.49945 27.6367 9.26037C27.6367 11.0216 29.0692 12.4544 30.8304 12.4544C32.5917 12.4544 34.0245 11.0216 34.0245 9.26037C34.0245 7.49915 32.5917 6.06665 30.8304 6.06665ZM30.8304 10.1368C30.3473 10.1368 29.954 9.7435 29.954 9.26037C29.954 8.77694 30.3473 8.38398 30.8304 8.38398C31.3139 8.38398 31.7071 8.77694 31.7071 9.26037C31.7071 9.7435 31.3139 10.1368 30.8304 10.1368Z" fill="#001E64"/>
<path d="M89.1983 5.80198C88.8065 5.31783 88.1568 5.13828 87.5791 5.35374L50.8872 18.8038C50.1542 19.0741 49.6397 19.7294 49.5442 20.5142C49.4495 21.2952 49.7889 22.053 50.4255 22.4892L55.6702 26.1209C56.1784 26.4729 56.8317 26.5107 57.3759 26.2194L68.7528 20.1337L59.8859 26.8496C59.4697 27.1651 59.221 27.6681 59.221 28.195V34.4159C59.221 35.0576 59.5679 35.6455 60.1264 35.9507C60.6858 36.2559 61.3615 36.2256 61.8928 35.8702L65.8774 33.1891L69.7959 35.8993C70.1392 36.138 70.5481 36.2637 70.9607 36.2637C71.1002 36.2637 71.2403 36.2491 71.3782 36.22C71.9285 36.1036 72.4152 35.7588 72.714 35.274L89.3146 7.50704C89.6378 6.97243 89.5914 6.2883 89.1983 5.80198ZM70.8732 33.7655L66.8152 30.9587C66.533 30.7631 66.2076 30.6653 65.8826 30.6653C65.5646 30.6653 65.2463 30.7591 64.9677 30.9467L61.5659 33.2355V28.546L77.2229 16.6871C77.9221 16.1574 78.0982 15.1934 77.6322 14.4449C77.1659 13.6964 76.2323 13.4435 75.4605 13.8564L56.6495 23.9187L52.2135 20.8469L86.0016 8.46142L70.8732 33.7655Z" fill="#C4C4C4"/>
<path d="M133.443 5.95532C129.822 2.33456 125.009 0.34082 119.888 0.34082C119.888 0.34082 119.887 0.34082 119.886 0.34082C117.354 0.341122 114.886 0.83149 112.551 1.79865C110.216 2.76582 108.124 4.16424 106.333 5.95532C102.713 9.57578 100.719 14.3896 100.719 19.5098C100.719 22.5633 101.456 25.5978 102.852 28.3014L99.6298 37.5062C99.4027 38.1555 99.5635 38.8612 100.05 39.3477C100.391 39.6885 100.839 39.8694 101.3 39.8694C101.497 39.8694 101.697 39.8362 101.892 39.7681L111.096 36.5463C113.8 37.9423 116.835 38.6791 119.888 38.6791C125.008 38.6791 129.822 36.685 133.443 33.0646C137.063 29.4441 139.057 24.6303 139.057 19.5101C139.057 14.3896 137.063 9.57578 133.443 5.95532ZM131.803 31.4252C128.621 34.6081 124.389 36.3605 119.888 36.3605C117.135 36.3605 114.399 35.6796 111.978 34.3906C111.539 34.1572 111.02 34.1171 110.554 34.2803L102.191 37.2071L105.118 28.8443C105.281 28.3777 105.241 27.8587 105.007 27.4199C103.719 24.9988 103.037 22.2635 103.037 19.5098C103.037 15.009 104.79 10.7773 107.973 7.59471C111.155 4.41244 115.386 2.65966 119.887 2.65906H119.888C124.389 2.65906 128.621 4.41184 131.803 7.59471C134.986 10.7773 136.739 15.0087 136.739 19.5098C136.739 24.0109 134.986 28.2426 131.803 31.4252Z" fill="#C4C4C4"/>
<path d="M127.012 21.2221C126.13 20.3403 124.696 20.3403 123.814 21.2221L122.849 22.1866C120.454 20.8817 118.516 18.9437 117.211 16.5489L118.176 15.5844C119.058 14.7026 119.058 13.2677 118.176 12.3859L115.577 9.78685C114.695 8.90503 113.26 8.90503 112.378 9.78685L110.299 11.8659C109.108 13.0569 109.049 15.1043 110.132 17.6312C111.072 19.8252 112.793 22.2366 114.977 24.421C117.161 26.6053 119.573 28.3261 121.767 29.2665C122.968 29.781 124.06 30.0376 125.003 30.0376C126.046 30.0376 126.907 29.7243 127.532 29.0991L129.611 27.0197V27.02C130.039 26.5927 130.274 26.0248 130.274 25.4207C130.274 24.8164 130.039 24.2485 129.611 23.8214L127.012 21.2221ZM125.893 27.4597C125.553 27.7996 124.508 27.9187 122.68 27.1358C120.751 26.3089 118.597 24.7624 116.617 22.7816C114.636 20.8008 113.09 18.6476 112.263 16.718C111.479 14.8908 111.599 13.8452 111.938 13.5053L113.978 11.466L116.497 13.9851L115.289 15.1927C114.743 15.7385 114.612 16.5664 114.962 17.2527C116.549 20.365 119.033 22.8492 122.145 24.4364C122.832 24.7865 123.66 24.655 124.206 24.1089L125.413 22.9016L127.932 25.4207L125.893 27.4597Z" fill="#C4C4C4"/>
<path d="M163.264 39.2637H156.774C155.691 39.2637 154.809 38.4151 154.809 37.3719V23.2848H151.023C149.939 23.2848 149.057 22.4359 149.057 21.393V15.3567C149.057 14.3135 149.939 13.4649 151.023 13.4649H154.809V10.4421C154.809 7.44495 155.787 4.89498 157.636 3.06834C159.494 1.23338 162.091 0.263672 165.146 0.263672L170.095 0.271408C171.177 0.273193 172.057 1.1218 172.057 2.16321V7.76779C172.057 8.81099 171.176 9.65959 170.092 9.65959L166.76 9.66078C165.744 9.66078 165.485 9.85686 165.43 9.91697C165.338 10.0166 165.23 10.2984 165.23 11.0765V13.4646H169.842C170.189 13.4646 170.525 13.547 170.814 13.7024C171.438 14.0377 171.826 14.6718 171.826 15.357L171.823 21.3933C171.823 22.4359 170.941 23.2845 169.857 23.2845H165.23V37.3719C165.23 38.4151 164.348 39.2637 163.264 39.2637ZM157.184 36.9773H162.854V22.2613C162.854 21.5647 163.443 20.9982 164.166 20.9982H169.447L169.45 15.7513H164.166C163.443 15.7513 162.854 15.1847 162.854 14.4882V11.0765C162.854 10.1833 162.948 9.16745 163.649 8.40395C164.495 7.48096 165.829 7.37444 166.759 7.37444L169.681 7.37325V2.55716L165.144 2.55002C160.235 2.55002 157.184 5.57428 157.184 10.4421V14.4882C157.184 15.1844 156.596 15.7513 155.872 15.7513H151.433V20.9982H155.872C156.596 20.9982 157.184 21.5647 157.184 22.2613V36.9773ZM170.09 2.55775H170.091H170.09Z" fill="#C4C4C4"/>
</svg>
